<svg width="150" height="55" viewBox="0 0 150 55" fill="none" xmlns="http://www.w3.org/2000/svg">
   <path d="M137.443 16.503L136.329 21.097L135.3 16.013L121.523 12.977L121.623 20.638L123.699 21.104L123.549 22.486C123.528 22.4763 123.508 22.4632 123.491 22.447C122.138 21.7702 120.657 21.3879 119.146 21.3253C117.635 21.2627 116.127 21.5213 114.723 22.084C113.73 22.4619 112.792 22.9689 111.932 23.592L109.854 10.472H100.691L100.439 11.98H90.792L89.692 18.725L88.892 17.737C87.7428 16.3307 86.2973 15.1954 84.6588 14.4122C83.0203 13.629 81.229 13.2171 79.413 13.206L87.601 8.806L81.891 0.285L71.575 12.171L73.356 14.342C71.8079 14.9661 70.3879 15.8698 69.167 17.008L60.322 9.16L57.229 15.087L57.348 9.387L43.519 13.809L43.874 21.239L46.227 20.629L46.575 24.394C45.1622 23.7966 43.6416 23.4962 42.1077 23.5115C40.5739 23.5269 39.0596 23.8575 37.659 24.483C36.7836 24.8634 35.9521 25.3375 35.179 25.897C35.7262 23.7115 35.5583 21.4081 34.7 19.325C33.6658 16.9535 31.8828 14.9864 29.624 13.725C28.0104 12.6732 26.1704 12.0193 24.255 11.817C19.47 10.981 13.724 11.839 8.06797 14.249C6.06699 15.0927 4.13825 16.0984 2.30097 17.256L0.0899658 18.656L1.42497 20.911L5.56797 27.911C5.56797 27.911 6.83597 30.057 6.84397 30.056L9.08497 28.956L9.39697 28.812L19.694 51.797L20.687 54.006L22.987 53.266L28.558 51.482L30.999 50.706L30.355 48.221L27.395 36.865C28.2288 36.2484 29.0233 35.5805 29.774 34.865C29.6033 36.2202 29.7053 37.5958 30.074 38.911C30.4294 40.2385 31.0672 41.4737 31.9437 42.5321C32.8203 43.5906 33.915 44.4474 35.153 45.044C36.5746 45.6865 38.1165 46.0195 39.6766 46.0209C41.2367 46.0223 42.7792 45.692 44.202 45.052C45.7074 44.404 47.0786 43.4805 48.245 42.329L48.665 46.852L58.413 45.418L58.398 36.671L78.785 46.745V36.99C79.6248 36.9222 80.4581 36.7884 81.277 36.59C83.3414 36.1249 85.3224 35.3462 87.151 34.281L86.295 39.52L97.286 41.25L97.886 37.295L100.757 42.595L102.512 39.214L103.153 44.766L115.614 46.966L114.953 42.774C117.175 42.9941 119.414 42.568 121.4 41.547L120.9 46.007L129.194 47.177L129.256 50.577L137.913 53.289L149.173 19.352L137.448 16.502L137.443 16.503ZM88.753 21.546L89.325 20.938L88.634 25.217L86.834 23.597L88.753 21.546ZM81.453 4.068L84.472 8.168L75.84 12.447L75.24 11.541L81.449 4.066L81.453 4.068ZM24.293 35.697L27.737 48.911L22.163 50.689L10.725 25.145C10.103 25.472 8.95397 26.021 7.89897 26.538L3.75697 19.538C5.46694 18.4556 7.26495 17.5189 9.13197 16.738C14.524 14.445 19.669 13.76 23.784 14.487C25.3304 14.6322 26.8203 15.1426 28.131 15.976C29.9446 16.9558 31.3807 18.5111 32.213 20.397C34.207 25.005 30.879 31.63 24.293 35.697ZM49.919 33.345C49.8229 35.3706 49.1267 37.322 47.919 38.951C46.7397 40.603 45.1324 41.9022 43.27 42.709C38.434 44.758 33.599 42.709 32.307 38.118C31.055 33.679 33.968 28.394 38.653 26.376C39.9437 25.7692 41.3663 25.497 42.7899 25.5844C44.2135 25.6718 45.5921 26.1159 46.799 26.876C48.1783 27.8142 49.1765 29.2149 49.613 30.825C49.6691 31.0071 49.7155 31.192 49.752 31.379C49.8877 32.0244 49.9438 32.684 49.919 33.343V33.345ZM76.23 42.687L56.003 32.569L56.039 43.169L50.807 43.883L50.442 39.514C51.2609 38.1766 51.8034 36.6886 52.0375 35.138C52.2716 33.5874 52.1925 32.0056 51.805 30.486C51.3618 28.8872 50.5066 27.4327 49.325 26.268L48.574 17.36L46.225 17.969L46.125 15.717L54.525 13.217L55.04 21.883L61.23 13.183L67.281 18.946L58.819 27.861L66.769 31.006C67.6888 32.7214 69.0505 34.1597 70.713 35.172C72.3899 36.1883 74.277 36.8078 76.23 36.983V42.683V42.687ZM65.73 28.031L62.913 26.943L65.537 24.397C65.4242 25.6105 65.4885 26.834 65.728 28.029L65.73 28.031ZM87.741 30.681C85.6801 32.3435 83.255 33.4946 80.664 34.04C80.0457 34.1852 79.4183 34.2878 78.786 34.347C74.146 34.803 70.253 32.672 68.776 29.217C68.5923 28.7998 68.4474 28.3667 68.343 27.923C67.9077 26.2849 67.9393 24.5577 68.4341 22.9365C68.9289 21.3154 69.8672 19.8649 71.143 18.749C72.5892 17.4926 74.3237 16.6135 76.192 16.19C80.612 15.124 84.505 16.473 86.892 19.402L78.469 28.367C79.1918 28.4294 79.92 28.3616 80.619 28.167C82.2612 27.7589 83.7143 26.8012 84.737 25.453L88.103 28.481L89.123 29.402C88.684 29.8513 88.2221 30.2776 87.739 30.679L87.741 30.681ZM105.613 42.643L103.781 30.506L101.19 37.206L97.31 28.838H97.266L95.733 38.529L89.261 37.397L90.17 31.989C90.414 31.76 90.654 31.53 90.89 31.289L92.99 29.131L90.953 27.307L93.113 14.428H99.637L101.27 23.343L103.1 13.011H107.767L109.705 25.597C108.473 26.9264 107.574 28.5287 107.081 30.2726C106.587 32.0164 106.514 33.8524 106.867 35.63C107.157 36.9192 107.721 38.1306 108.522 39.1818C109.322 40.2329 110.34 41.099 111.506 41.721C111.743 41.84 111.989 41.959 112.243 42.061L112.49 43.693L105.613 42.643ZM121.727 38.689C121.005 39.2074 120.217 39.6277 119.385 39.939C117.861 40.5449 116.198 40.7089 114.585 40.412C113.584 40.2197 112.635 39.8157 111.802 39.227C110.449 38.2383 109.499 36.7939 109.127 35.16C108.679 33.0037 109.067 30.7579 110.213 28.877C110.788 27.8982 111.506 27.0116 112.345 26.247C113.305 25.38 114.415 24.6954 115.621 24.227C116.856 23.7095 118.2 23.505 119.533 23.6317C120.867 23.7583 122.148 24.2122 123.264 24.953C123.99 25.4718 124.605 26.1303 125.073 26.89C125.446 27.5085 125.719 28.1812 125.885 28.884C126.151 30.1623 126.137 31.4832 125.844 32.7555C125.55 34.0279 124.984 35.2214 124.185 36.254C123.498 37.1913 122.667 38.0132 121.722 38.689H121.727ZM136.287 50.129L131.505 48.705L131.088 31.075L128.688 44.675L123.471 43.842L123.845 39.926C127.251 37.048 129.057 32.507 128.068 28.392C127.656 26.6177 126.717 25.0093 125.376 23.777L125.816 19.159L123.844 18.634L123.976 16.168L132.964 17.974L135.986 32.305L139.086 19.457L145.913 20.969L136.283 50.128L136.287 50.129Z" fill="url(#paint0_linear)" />
   <defs>
      <linearGradient id="paint0_linear" x1="316.444" y1="-547.347" x2="465.527" y2="-547.347" gradientUnits="userSpaceOnUse">
         <stop stop-color="#3C5AA6" />
         <stop offset="0.933" stop-color="#2B73B9" />
         <stop offset="1" stop-color="#2A75BB" />
      </linearGradient>
   </defs>
</svg>
